<svg xmlns="http://www.w3.org/2000/svg" viewBox="0 0 24 24"><path fill="#1877F2" d="M24 12.073C24 5.405 18.627 0 12 0S0 5.405 0 12.073C0 18.1 4.388 23.094 10.125 24v-8.437H7.078v-3.49h3.047V9.403c0-3.007 1.792-4.669 4.533-4.669 1.312 0 2.686.235 2.686.235v2.953h-1.514c-1.491 0-1.956.925-1.956 1.874v2.25h3.328l-.532 3.49h-2.796V24C19.612 23.094 24 18.1 24 12.073z"/><path fill="#FFF" d="M16.671 15.563l.532-3.49h-3.328v-2.25c0-.949.465-1.874 1.956-1.874h1.514V5.004s-1.374-.235-2.686-.235c-2.741 0-4.533 1.662-4.533 4.669v2.742H7.078v3.49h3.047V24c.618.096 1.25.146 1.875.146s1.257-.05 1.875-.146v-8.437h2.796z"/></svg>
