<svg xmlns="http://www.w3.org/2000/svg" viewBox="0 0 24 24"><path fill="#E60023" d="M12 0C5.373 0 0 5.373 0 12c0 5.084 3.163 9.426 7.627 11.174-.105-.949-.2-2.406.042-3.441.218-.937 1.407-5.965 1.407-5.965s-.359-.719-.359-1.782c0-1.668.967-2.915 2.171-2.915 1.024 0 1.518.769 1.518 1.688 0 1.029-.654 2.568-.991 3.992-.286 1.193.601 2.165 1.774 2.165 2.128 0 3.768-2.245 3.768-5.487 0-2.861-2.063-4.869-5.008-4.869-3.41 0-5.409 2.562-5.409 5.199 0 1.033.394 2.143.889 2.741.099.12.112.225.085.345-.09.375-.293 1.199-.334 1.363-.053.225-.172.271-.401.165-1.495-.69-2.433-2.878-2.433-4.646 0-3.776 2.748-7.252 7.951-7.252 4.168 0 7.392 2.967 7.392 6.923 0 4.135-2.607 7.462-6.233 7.462-1.214 0-2.354-.629-2.758-1.379l-.749 2.848c-.269 1.045-1.004 2.352-1.498 3.146 1.123.345 2.306.535 3.55.535 6.607 0 11.985-5.365 11.985-11.987C23.97 5.367 18.592 0 12 0z"/></svg>
