<svg xmlns="http://www.w3.org/2000/svg" viewBox="0 0 24 24"><path fill="#25D366" d="M12.031 0C5.385 0 0 5.384 0 12.031c0 2.112.553 4.182 1.597 6.002L.055 23.633l5.748-1.507c1.761.947 3.755 1.448 5.794 1.448h.005c6.643 0 12.025-5.385 12.025-12.031S18.675 0 12.031 0zm0 21.62c-1.802 0-3.567-.484-5.115-1.403l-.367-.217-3.803.997.997-3.71-.237-.378c-.985-1.558-1.506-3.355-1.506-5.21 0-5.556 4.52-10.076 10.076-10.076s10.076 4.52 10.076 10.076-4.52 10.076-10.076 10.076zm5.521-7.551c-.302-.151-1.787-.882-2.064-.982-.276-.1-.478-.151-.678.151-.202.302-.78 1.002-.956 1.203-.176.201-.353.226-.654.075-1.353-.67-2.483-1.458-3.418-2.613-.263-.324-.031-.497.118-.646.136-.135.302-.351.453-.526.151-.176.201-.302.302-.503.1-.201.05-.378-.025-.529-.076-.151-.678-1.636-.931-2.241-.245-.589-.494-.509-.678-.518-.176-.008-.378-.01-.578-.01-.2 0-.528.075-.805.376-.277.302-1.056 1.031-1.056 2.513 0 1.482 1.082 2.915 1.233 3.116.151.201 2.124 3.242 5.143 4.544 2.015.868 2.809.932 3.864.786 1.135-.157 2.457-1.004 2.809-1.97.352-.966.352-1.794.246-1.97-.105-.176-.377-.277-.679-.428z"/></svg>
